<svg xmlns="http://www.w3.org/2000/svg" xmlns:xlink="http://www.w3.org/1999/xlink" width="792.432" height="477.253" viewBox="0 0 792.432 477.253">
  <defs>
    <linearGradient id="linear-gradient" x1="0.331" y1="-0.256" x2="0.625" y2="1.277" gradientUnits="objectBoundingBox">
      <stop offset="0" stop-color="#fcf1a2"/>
      <stop offset="1" stop-color="#fff"/>
    </linearGradient>
    <linearGradient id="linear-gradient-2" x1="0" y1="0.5" x2="1" y2="0.5" xlink:href="#linear-gradient"/>
    <linearGradient id="linear-gradient-3" y1="0.5" x2="1" y2="0.5" gradientUnits="objectBoundingBox">
      <stop offset="0" stop-color="#ffde8d"/>
      <stop offset="1" stop-color="#efbc09"/>
    </linearGradient>
    <linearGradient id="linear-gradient-4" y1="0.5" x2="1" y2="0.5" gradientUnits="objectBoundingBox">
      <stop offset="0" stop-color="#efbc09"/>
      <stop offset="1" stop-color="#ffde8d"/>
    </linearGradient>
  </defs>
  <g id="Group_386" data-name="Group 386" transform="translate(-592.721 -363)">
    <g id="Group_384" data-name="Group 384" transform="translate(370.71 165.073)">
      <path id="Path_433" data-name="Path 433" d="M759.417,463.927l4.041,11.112h74.5L822.3,463.927Z" transform="translate(-120.805 -59.805)" fill="#f2dfaa"/>
      <g id="Group_383" data-name="Group 383" transform="translate(296.182 197.927)">
        <g id="Group_380" data-name="Group 380" transform="translate(358.092)">
          <rect id="Rectangle_541" data-name="Rectangle 541" width="303.835" height="193.409" transform="translate(104.384) rotate(32.664)" fill="#e8efef"/>
          <rect id="Rectangle_542" data-name="Rectangle 542" width="14.724" height="72.279" transform="translate(73.835 95.286) rotate(32.664)" fill="#fff"/>
          <rect id="Rectangle_543" data-name="Rectangle 543" width="15.698" height="149.792" transform="translate(158.579 57.541) rotate(32.664)" fill="#fff"/>
          <rect id="Rectangle_544" data-name="Rectangle 544" width="15.698" height="149.792" transform="translate(185.879 75.043) rotate(32.664)" fill="#fff"/>
          <rect id="Rectangle_545" data-name="Rectangle 545" width="15.698" height="149.792" transform="translate(212.245 91.945) rotate(32.664)" fill="#fff"/>
          <rect id="Rectangle_546" data-name="Rectangle 546" width="15.698" height="149.792" transform="translate(239.545 109.448) rotate(32.664)" fill="#fff"/>
          <rect id="Rectangle_547" data-name="Rectangle 547" width="15.698" height="149.792" transform="translate(264.189 125.246) rotate(32.664)" fill="#fff"/>
          <rect id="Rectangle_548" data-name="Rectangle 548" width="15.698" height="149.792" transform="translate(291.489 142.748) rotate(32.664)" fill="#fff"/>
        </g>
        <g id="Group_381" data-name="Group 381" transform="translate(0 96.877)">
          <rect id="Rectangle_549" data-name="Rectangle 549" width="303.835" height="193.409" transform="matrix(0.858, 0.513, -0.513, 0.858, 99.213, 0)" fill="#e8efef"/>
          <rect id="Rectangle_550" data-name="Rectangle 550" width="14.724" height="72.279" transform="matrix(0.858, 0.513, -0.513, 0.858, 71.675, 96.2)" fill="#fff"/>
          <rect id="Rectangle_551" data-name="Rectangle 551" width="15.698" height="149.792" transform="matrix(0.858, 0.513, -0.513, 0.858, 155.19, 55.808)" fill="#fff"/>
          <rect id="Rectangle_552" data-name="Rectangle 552" width="15.698" height="149.792" transform="matrix(0.858, 0.513, -0.513, 0.858, 183.027, 72.443)" fill="#fff"/>
          <rect id="Rectangle_553" data-name="Rectangle 553" width="15.698" height="149.792" transform="matrix(0.858, 0.513, -0.513, 0.858, 209.911, 88.509)" fill="#fff"/>
          <rect id="Rectangle_554" data-name="Rectangle 554" width="15.698" height="149.792" transform="matrix(0.858, 0.513, -0.513, 0.858, 237.749, 105.144)" fill="#fff"/>
          <rect id="Rectangle_555" data-name="Rectangle 555" width="15.698" height="149.792" transform="matrix(0.858, 0.513, -0.513, 0.858, 262.877, 120.16)" fill="#fff"/>
          <rect id="Rectangle_556" data-name="Rectangle 556" width="15.698" height="149.792" transform="matrix(0.858, 0.513, -0.513, 0.858, 290.714, 136.795)" fill="#fff"/>
        </g>
        <g id="Group_382" data-name="Group 382" transform="translate(132.355 77.136)">
          <rect id="Rectangle_557" data-name="Rectangle 557" width="303.835" height="193.409" transform="translate(180.398 0) rotate(68.865)" fill="#e8efef"/>
          <rect id="Rectangle_558" data-name="Rectangle 558" width="14.724" height="72.279" transform="translate(99.469 58.849) rotate(68.865)" fill="#fff"/>
          <rect id="Rectangle_559" data-name="Rectangle 559" width="15.698" height="149.792" transform="translate(190.146 78.441) rotate(68.865)" fill="#fff"/>
          <rect id="Rectangle_560" data-name="Rectangle 560" width="15.698" height="149.792" transform="translate(201.839 108.689) rotate(68.865)" fill="#fff"/>
          <rect id="Rectangle_561" data-name="Rectangle 561" width="15.698" height="149.792" transform="translate(213.132 137.9) rotate(68.865)" fill="#fff"/>
          <rect id="Rectangle_562" data-name="Rectangle 562" width="15.698" height="149.792" transform="translate(224.825 168.148) rotate(68.865)" fill="#fff"/>
          <rect id="Rectangle_563" data-name="Rectangle 563" width="15.698" height="149.792" transform="translate(235.38 195.451) rotate(68.865)" fill="#fff"/>
          <rect id="Rectangle_564" data-name="Rectangle 564" width="15.698" height="149.792" transform="translate(247.073 225.699) rotate(68.865)" fill="#fff"/>
        </g>
      </g>
      <path id="Path_434" data-name="Path 434" d="M222.1,624.863s23.234-4.546,10.1,68.692,126.777,36.366,153.041,22.224c0,0-99-4.041-109.6-54.044S222.1,624.863,222.1,624.863Z" transform="translate(0 -95.638)" fill="url(#linear-gradient)"/>
      <path id="Path_435" data-name="Path 435" d="M222.1,625.269s33.083-6,36.114,55.618,127.029,35.3,127.029,35.3" transform="translate(0 -96.043)" fill="none" stroke="#ffe1a4" stroke-miterlimit="10" stroke-width="1"/>
      <path id="Path_436" data-name="Path 436" d="M308.126,399.42s14.648,39.4-28.285,91.421,7.577,193.954,82.329,196.479c0,0-60.611-125.261-30.811-197.489S308.126,399.42,308.126,399.42Z" transform="translate(-9.438 -45.302)" fill="url(#linear-gradient-2)"/>
      <path id="Path_437" data-name="Path 437" d="M317.1,399.42s32.079,32.255-4.546,111.625,56,176.125,56,176.125" transform="translate(-18.409 -45.302)" fill="none" stroke="#ffe1a4" stroke-miterlimit="10" stroke-width="1"/>
      <path id="Path_438" data-name="Path 438" d="M944.733,805.618s-22.984-5.31-35.356-7.325-7.07-13.387-5.558-14.147,7.829.256,7.829.256l8.589-6.31c1.891,5.884,13.007,16.837,23.922,4.938l.015-.015a15.953,15.953,0,0,0,2.31-2.884c.008-.008.008-.016.015-.023,2.271,3.791,4.039,12.628,4.55,18.689S944.733,805.618,944.733,805.618Z" transform="translate(-152.725 -130.438)" fill="#333"/>
      <path id="Path_439" data-name="Path 439" d="M1137.46,797.8s-19.945-4.8-27.774-5.814-15.41-2.775-14.9-8.837,4.287-5.806,4.287-5.806h5.054c5.054,0,8.077-5.054,8.077-5.054,3.457,4.527,20.5,1.69,27.472-1.9h.008l.3-.116s4.8,6.566,6.318,17.674S1137.46,797.8,1137.46,797.8Z" transform="translate(-196.2 -128.68)" fill="#333"/>
      <path id="Path_440" data-name="Path 440" d="M1144.736,770.422c-6.969,3.589-24.015,6.426-27.472,1.9C1125.442,777.228,1142.263,771.329,1144.736,770.422Z" transform="translate(-201.259 -128.714)" fill="none" stroke="#000" stroke-miterlimit="10" stroke-width="1"/>
      <path id="Path_441" data-name="Path 441" d="M1103.789,712.1a7.871,7.871,0,0,1-2.574,1.884h-.008c-2.473.907-19.294,6.806-27.472,1.9-4.039-5.3-9.845-26.767-9.845-26.767s-24.247-57.58-29.294-63.393-8.333-19.441-8.845-20.449-9.341-62.378-9.341-62.378c-8.333,2.775-48.487,73.742-48.487,73.742s-7.829,64.9-11.845,75.757-4.574,29.549-4.574,29.549-.008.016-.015.023a29.336,29.336,0,0,1-2.31,2.884l-.015.015c-10.914,11.9-22.03.946-23.922-4.938-2.023-6.318-2.023-23.743-.5-38.138s8.333-55.812,8.333-72.982S940.9,582.8,940.9,582.8c3.279-21.72,28.79-63.386,28.79-63.386,2.124,3.574,10.876,7.085,22.86,9.914l.078.023c37.224,11.767,75.052,5.721,75.052,5.721-3.031,6.31-8.589,76.517-8.589,76.517,22.224,15.914,27.782,47.735,28.286,55.812S1103.789,712.1,1103.789,712.1Z" transform="translate(-157.731 -72.279)" fill="#8c6239"/>
      <path id="Path_442" data-name="Path 442" d="M1144.736,770.422c-6.969,3.589-24.015,6.426-27.472,1.9C1125.442,777.228,1142.263,771.329,1144.736,770.422Z" transform="translate(-201.259 -128.714)" fill="none" stroke="#000" stroke-miterlimit="10" stroke-width="1"/>
      <path id="Path_443" data-name="Path 443" d="M950.978,503.737c-11.558,13.17-32.317,14.728-30.805,4.5s19.891-17.116,19.891-17.116.225-.008.628,0C941.629,493.5,945.063,501.179,950.978,503.737Z" transform="translate(-156.93 -65.919)" fill="#c7b299"/>
      <path id="Path_444" data-name="Path 444" d="M1111.461,246.315a44,44,0,0,0,.124,9.093l-3.4,2.651s-2.969,2.651-10.007-1.891-11.209-11.364-15.5-11.5-10.356,0-10.356,0l-11.364-17.426-8.961-.5s-14.147-7.325-14.015-12.876h5.93s9.473-5.178,19.953-11.876,26.767-2.775,26.767-2.775,13.131,6.946,18.186,10.86,10.736,7.07,9.093,16.418S1111.965,242.277,1111.461,246.315Z" transform="translate(-183.433 -0.034)" fill="#4d4d4d"/>
      <path id="Path_445" data-name="Path 445" d="M1116.634,271.751l-20.8,8.023-.209.3-4.736,6.853.7-18.007c-7.434-.744-12.674-3.124-16.348-6.287-11.294-9.736-7.775-26.929-7.775-26.929l11.364,17.426s6.062-.124,10.356,0,8.465,6.946,15.5,11.5,10.007,1.891,10.007,1.891Z" transform="translate(-189.946 -8.494)" fill="#c7b299"/>
      <path id="Path_446" data-name="Path 446" d="M1046.379,261.345l-7.24,7.814V272c-2.442-1.535-9.178-5.791-10.108-6.511-1.132-.884-4.287.76-4.287.76l-26.519-17.131c13.007-6.651,30.805.589,30.805.589Z" transform="translate(-174.496 -10.878)" fill="#c7b299" stroke="#c7b299" stroke-miterlimit="10" stroke-width="1"/>
      <path id="Path_447" data-name="Path 447" d="M1088,275.406l-.7,18.007-2.969,4.294-4.984,1.519-28.348-18.271v-7.7l7.24-7.814.837-.9,12.573,4.574C1075.33,272.282,1080.57,274.662,1088,275.406Z" transform="translate(-186.362 -14.978)" fill="url(#linear-gradient-3)"/>
      <path id="Path_448" data-name="Path 448" d="M1120.573,365.929c-6.736,11.279-8.085,25.426-4.884,32.325s8.922,56.905,8.922,56.905l-33.673,20.713-4.209-13.976v17.527c-20.449,8.24-65.595,5.294-93.4-1.271l-.078-.023a116.268,116.268,0,0,1-22.86-9.914c-6.9-11.589,4.473-23.728,5.023-24.309l-16.472,13.449a9.893,9.893,0,0,1-2.07-.651c-5.915-2.558-9.349-10.232-10.286-12.612-.178-.45-.271-.713-.271-.713,3.705-8.752,39.231-53.541,44.952-57.58s12.457-12.961,12.457-12.961,13.806-29.805,19.868-46.8,16.162-18.015,16.162-18.015l16.062-4.884,4.984-1.519,2.969-4.294,4.736-6.853.209-.3,20.8-8.023.581-.225,22.395,9.093,12.457.674c16.5,6.9,12.093,33.937,12.093,33.937S1127.3,354.65,1120.573,365.929Z" transform="translate(-162.825 -18.883)" fill="url(#linear-gradient-4)"/>
      <path id="Path_449" data-name="Path 449" d="M771.446,470.5H439.6l-22.224-26.77H365.861V697.281H771.446Z" transform="translate(-32.322 -55.263)" fill="#efbc09"/>
    </g>
    <g id="clock" transform="translate(818.041 614.809)">
      <g id="Layer_2_18_" transform="translate(12.959 -0.001)">
        <g id="Group_385" data-name="Group 385" transform="translate(0)">
          <path id="Path_450" data-name="Path 450" d="M183.427,158.724a10.106,10.106,0,0,0,7.418-6.98L194.6,140.7l1.51.513a1.331,1.331,0,0,0,1.685-.829l2.015-5.924a1.33,1.33,0,0,0-.83-1.684L150.3,116.226a1.332,1.332,0,0,0-1.685.83l-2.015,5.924a1.332,1.332,0,0,0,.83,1.684l1.51.514-3.822,11.243c-1.8,5.308-.611,7.1,1.654,9.813l9.85,11.8-1.1,3.229c-3.769.818-13.618,2.964-14.944,3.347a10.108,10.108,0,0,0-7.419,6.98l-3.232,9.508-1.511-.513a1.332,1.332,0,0,0-1.685.829l-2.014,5.924a1.332,1.332,0,0,0,.83,1.685l48.678,16.552a1.332,1.332,0,0,0,1.684-.83l2.013-5.923a1.331,1.331,0,0,0-.83-1.685l-1.51-.514,3.3-9.709c1.8-5.307.612-7.1-1.654-9.812l-9.85-11.8,1.1-3.229C172.251,161.254,182.1,159.108,183.427,158.724Zm-20.572,8.61,10.711,12.826a6.194,6.194,0,0,1,1.375,2.013,6.85,6.85,0,0,1-.578,3.2l-3.3,9.709-36.607-12.447,3.232-9.507a5.413,5.413,0,0,1,4.221-3.927c1.056-.305,10.117-2.292,15.95-3.553a2.39,2.39,0,0,0,1.757-1.567l1.965-5.78a2.391,2.391,0,0,0-.428-2.3l-10.679-12.787-.032-.039a6.18,6.18,0,0,1-1.375-2.014,6.85,6.85,0,0,1,.578-3.2l3.823-11.243,36.608,12.447-3.755,11.043a5.41,5.41,0,0,1-4.22,3.927c-1.056.306-10.117,2.293-15.949,3.553a2.392,2.392,0,0,0-1.758,1.567l-1.965,5.779A2.391,2.391,0,0,0,162.855,167.334Z" transform="translate(-89.499 -79.599)" fill="#fff"/>
          <path id="Path_451" data-name="Path 451" d="M115.235,133.308c-1.068.606-2.17,1.185-3.273,1.723q-.268.131-.517.285a5.626,5.626,0,0,0-.527.214A59.978,59.978,0,0,1,96,140.244c-.066.009-.132.013-.2.025-1.212.214-2.445.393-3.665.533l-.04.007a61.943,61.943,0,0,1-6.794.373,60.8,60.8,0,0,1-57.241-40.507c-.126-.36-.252-.718-.371-1.079a60.733,60.733,0,0,1,.013-38.26c.044-.132.086-.262.13-.394q.18-.526.37-1.048.088-.245.179-.489A60.946,60.946,0,0,1,70.726,21.563l.037-.007c.289-.072.581-.142.872-.209.033-.007.064-.019.1-.027A60.676,60.676,0,0,1,84.99,19.793l.053,6.241c.016,1.937,1.239,2.5,2.717,1.245L100.941,16.1a2.836,2.836,0,0,0-.039-4.51L87.535.643c-1.5-1.227-2.712-.647-2.7,1.29l.053,6.228a71.848,71.848,0,0,0-50.734,21.18q-2,2-3.829,4.136l-.022.024c-.045.052-.087.107-.132.159A71.731,71.731,0,0,0,13.007,78.369c-.012.129-.025.257-.029.388-.013.553-.02,1.114-.02,1.67,0,.911.019,1.834.053,2.744,0,.107.018.211.028.316A71.691,71.691,0,0,0,28.027,124.67c.031.041.056.084.087.125.894,1.154,1.84,2.3,2.807,3.4.062.071.131.132.195.2q1.469,1.656,3.042,3.237A71.8,71.8,0,0,0,73.1,151.793l.134.025.1.012a73.273,73.273,0,0,0,11.973.985,71.73,71.73,0,0,0,30.529-6.741,5.753,5.753,0,0,0,.592-.324,5.6,5.6,0,0,0,.634-.263c1.316-.643,2.631-1.333,3.906-2.055a5.817,5.817,0,0,0-5.731-10.124Z" transform="translate(-12.959 0.001)" fill="#fff"/>
          <path id="Path_452" data-name="Path 452" d="M395.673,121.27a5.816,5.816,0,1,0,9.654-6.488c-.818-1.216-1.682-2.423-2.573-3.585a5.815,5.815,0,1,0-9.237,7.068C394.263,119.24,394.989,120.251,395.673,121.27Z" transform="translate(-272.928 -74.637)" fill="#fff"/>
          <path id="Path_453" data-name="Path 453" d="M425.839,180.176c.374,1.168.717,2.365,1.022,3.56a5.816,5.816,0,0,0,11.273-2.873c-.362-1.42-.771-2.845-1.217-4.235a5.816,5.816,0,1,0-11.078,3.548Z" transform="translate(-295.707 -118.269)" fill="#fff"/>
          <path id="Path_454" data-name="Path 454" d="M387.751,377.056a5.817,5.817,0,0,0-8.2.6c-.8.93-1.647,1.847-2.5,2.725a5.817,5.817,0,1,0,8.32,8.13c1.022-1.046,2.026-2.138,2.983-3.246A5.818,5.818,0,0,0,387.751,377.056Z" transform="translate(-261.324 -257.418)" fill="#fff"/>
          <path id="Path_455" data-name="Path 455" d="M441.1,243.73a5.812,5.812,0,0,0-5.987,5.64c-.036,1.23-.112,2.473-.225,3.7a5.817,5.817,0,0,0,5.26,6.324c.181.017.36.025.538.025a5.817,5.817,0,0,0,5.785-5.285c.134-1.46.225-2.944.268-4.412A5.818,5.818,0,0,0,441.1,243.73Z" transform="translate(-302.079 -167.022)" fill="#fff"/>
          <path id="Path_456" data-name="Path 456" d="M425.7,314.525a5.816,5.816,0,0,0-7.537,3.3c-.448,1.144-.937,2.291-1.455,3.408a5.816,5.816,0,1,0,10.555,4.889c.616-1.329,1.2-2.694,1.732-4.056A5.816,5.816,0,0,0,425.7,314.525Z" transform="translate(-289.271 -215.263)" fill="#fff"/>
          <path id="Path_457" data-name="Path 457" d="M353.42,71.7a5.816,5.816,0,0,0-1.213-8.136c-1.175-.871-2.394-1.716-3.622-2.515a5.816,5.816,0,0,0-6.342,9.752c1.032.67,2.055,1.381,3.043,2.113A5.815,5.815,0,0,0,353.42,71.7Z" transform="translate(-236.799 -41.189)" fill="#fff"/>
        </g>
      </g>
    </g>
  </g>
</svg>
